<svg width="176" height="41" viewBox="0 0 176 41" fill="none" xmlns="http://www.w3.org/2000/svg">
<g clip-path="url(#clip0_86_2656)">
<path d="M72.4512 40V23.68H77.1552V27.52H77.2512V40H72.4512ZM77.2512 31.488L76.8352 27.616C77.2192 26.2293 77.8485 25.1733 78.7232 24.448C79.5978 23.7227 80.6858 23.36 81.9872 23.36C82.3925 23.36 82.6912 23.4027 82.8832 23.488V27.968C82.7765 27.9253 82.6272 27.904 82.4352 27.904C82.2432 27.8827 82.0085 27.872 81.7312 27.872C80.1952 27.872 79.0645 28.1493 78.3392 28.704C77.6138 29.2373 77.2512 30.1653 77.2512 31.488Z" fill="currentColor"/>
<path d="M65.4263 40V23.68H70.2263V40H65.4263Z" fill="currentColor"/>
<path d="M61.4577 40.352C59.367 40.352 57.8097 39.8507 56.7857 38.848C55.783 37.824 55.2817 36.2773 55.2817 34.208V20.032L60.0817 18.5V34.368C60.0817 35.0933 60.2844 35.6373 60.6897 36C61.095 36.3627 61.7244 36.544 62.5777 36.544C62.8977 36.544 63.1964 36.512 63.4737 36.448C63.751 36.384 64.0284 36.3093 64.3057 36.224V39.872C64.0284 40.0213 63.6337 40.1387 63.1217 40.224C62.631 40.3093 62.0764 40.352 61.4577 40.352ZM52.2417 27.328V23.68H64.3057V27.328H52.2417Z" fill="currentColor"/>
<path d="M36.1887 40L36.2087 26.5L40.8927 25V27.52H40.9887V40H36.1887ZM47.5487 40V29.888C47.5487 28.992 47.3141 28.32 46.8447 27.872C46.3967 27.424 45.7354 27.2 44.8607 27.2C44.1141 27.2 43.4421 27.3707 42.8447 27.712C42.2687 28.0533 41.8101 28.5227 41.4687 29.12C41.1487 29.7173 40.9887 30.4213 40.9887 31.232L40.5727 27.296C41.106 26.1013 41.8847 25.152 42.9087 24.448C43.9541 23.7227 45.2341 23.36 46.7487 23.36C48.5621 23.36 49.9487 23.872 50.9087 24.896C51.8687 25.8987 52.3487 27.2533 52.3487 28.96V40H47.5487Z" fill="currentColor"/>
<path d="M0 16.96L10.4947 16.96C12.1587 16.96 13.6094 17.248 14.8467 17.824C16.0841 18.3787 17.0441 19.168 17.7267 20.192C18.4094 21.216 18.7507 22.4107 18.7507 23.776C18.7507 25.12 18.4094 26.304 17.7267 27.328C17.0441 28.3307 16.0841 29.12 14.8467 29.696C13.6094 30.2507 12.1587 30.528 10.4947 30.528H5.86346L3 26.912H10.3667C11.5401 26.912 12.4361 26.6454 13.0547 26.112C13.6947 25.5574 14.0147 24.7894 14.0147 23.808C14.0147 22.8054 13.7054 22.048 13.0867 21.536C12.4681 21.0027 11.5614 20.736 10.3667 20.736H2L0 16.96ZM13.1827 40L3.93473 28.032H9.15073L19.8387 40H13.1827Z" fill="currentColor"/>
<path d="M33.7236 27.0748C33.973 27.771 34.0996 28.559 34.0996 29.4401V36.6403C34.0996 37.1735 34.1313 37.7175 34.1953 38.2721C34.2806 38.8053 34.4085 39.3812 34.5791 39.9996H29.7793C29.6513 39.5304 29.5552 39.0289 29.4912 38.4957C29.4632 38.1452 29.4452 37.7578 29.4355 37.3336C28.9816 38.2107 28.3714 38.8973 27.6035 39.3922C26.6435 40.0108 25.4696 40.3199 24.083 40.3199C22.4621 40.3199 21.1718 39.9145 20.2119 39.1041C19.252 38.2722 18.7715 37.1734 18.7715 35.8082C18.7715 34.2936 19.3371 33.0771 20.4678 32.1598C21.6198 31.2212 23.2197 30.6129 25.2676 30.3356L29.2998 29.7672V28.9283C29.2998 28.7025 29.271 28.4944 29.2188 28.3033L33.7236 27.0748ZM26.0674 33.0563C25.2141 33.1843 24.585 33.4191 24.1797 33.7604C23.7745 34.1016 23.5714 34.5705 23.5713 35.1676C23.5713 35.7009 23.7635 36.1071 24.1475 36.3844C24.5314 36.6616 25.0437 36.8004 25.6836 36.8004C26.6862 36.8004 27.5392 36.5329 28.2432 35.9996C28.9472 35.445 29.2998 34.805 29.2998 34.0797V32.5602L26.0674 33.0563ZM26.8672 23.36C29.2138 23.36 31.0058 23.883 32.2432 24.9283C32.5288 25.1696 32.7803 25.436 33 25.7262L28.8516 27.6119C28.7839 27.5343 28.7111 27.4595 28.6279 27.3922C28.2013 27.0082 27.5604 26.816 26.707 26.816C25.8967 26.8161 25.2464 26.9549 24.7559 27.2321C24.2865 27.5094 23.9765 27.9145 23.8271 28.4479H19.252C19.4653 26.976 20.2223 25.7604 21.5234 24.8004C22.8247 23.8405 24.606 23.36 26.8672 23.36Z" fill="currentColor"/>
<path d="M71.6684 25.9727L68.395 18.8722C67.4212 16.9352 65.669 15.3158 63.1595 16.2032L26.5 29L62.2188 13.7823C64.1558 12.8086 65.2485 10.6932 64.8878 8.54688L63.5367 0.114162L67.3087 7.60617C68.2824 9.54313 70.3978 10.6359 72.5441 10.2752L80.9768 8.92405L73.4848 12.696C71.5479 13.6698 70.6693 16.3149 70.8158 17.9315L71.6684 25.9727Z" fill="currentColor"/>
<path d="M166.731 40.32C165.131 40.32 163.723 39.9467 162.507 39.2C161.291 38.4533 160.342 37.44 159.659 36.16C158.998 34.8587 158.667 33.3973 158.667 31.776C158.667 30.1333 159.009 28.6827 159.691 27.424C160.374 26.1653 161.313 25.1733 162.507 24.448C163.723 23.7227 165.131 23.36 166.731 23.36C168.353 23.36 169.761 23.7227 170.955 24.448C172.171 25.1733 173.11 26.1653 173.771 27.424C174.454 28.6827 174.795 30.1333 174.795 31.776C174.795 33.3973 174.454 34.8587 173.771 36.16C173.11 37.44 172.171 38.4533 170.955 39.2C169.761 39.9467 168.353 40.32 166.731 40.32ZM166.731 38.144C167.841 38.144 168.801 37.8773 169.611 37.344C170.422 36.7893 171.051 36.032 171.499 35.072C171.947 34.112 172.171 33.0027 172.171 31.744C172.171 29.8667 171.67 28.3627 170.667 27.232C169.686 26.1013 168.374 25.536 166.731 25.536C165.11 25.536 163.798 26.1013 162.795 27.232C161.793 28.3627 161.291 29.8667 161.291 31.744C161.291 33.0027 161.515 34.112 161.963 35.072C162.411 36.032 163.041 36.7893 163.851 37.344C164.683 37.8773 165.643 38.144 166.731 38.144Z" fill="currentColor"/>
<path d="M153.283 40V23.68H155.843V40H153.283ZM153.091 19.968V16.96H156.035V19.968H153.091Z" fill="currentColor"/>
<path d="M146.708 40V36.192L147.028 36.288C146.623 37.5253 145.876 38.5067 144.788 39.232C143.722 39.9573 142.442 40.32 140.948 40.32C139.476 40.32 138.186 39.968 137.076 39.264C135.988 38.56 135.135 37.5787 134.516 36.32C133.919 35.0613 133.62 33.5893 133.62 31.904C133.62 30.1973 133.93 28.704 134.548 27.424C135.167 26.144 136.031 25.152 137.14 24.448C138.25 23.744 139.551 23.392 141.044 23.392C142.58 23.392 143.871 23.7653 144.916 24.512C145.962 25.2587 146.676 26.3147 147.06 27.68L146.548 27.744V16.96H149.108V40H146.708ZM141.428 38.08C143.071 38.08 144.351 37.5253 145.268 36.416C146.207 35.2853 146.676 33.7493 146.676 31.808C146.676 29.9093 146.207 28.4053 145.268 27.296C144.33 26.1867 143.05 25.632 141.428 25.632C139.807 25.632 138.538 26.1867 137.62 27.296C136.703 28.4053 136.244 29.9413 136.244 31.904C136.244 33.824 136.703 35.3387 137.62 36.448C138.538 37.536 139.807 38.08 141.428 38.08Z" fill="currentColor"/>
<path d="M122.327 40.32C121.26 40.32 120.311 40.1067 119.479 39.68C118.647 39.232 117.996 38.6133 117.527 37.824C117.058 37.0133 116.823 36.0853 116.823 35.04V23.68H119.383V34.368C119.383 35.6053 119.682 36.5333 120.279 37.152C120.898 37.7707 121.772 38.08 122.903 38.08C123.927 38.08 124.834 37.8453 125.623 37.376C126.412 36.9067 127.031 36.256 127.479 35.424C127.948 34.5707 128.183 33.6 128.183 32.512L128.599 36.384C128.066 37.6 127.234 38.56 126.103 39.264C124.972 39.968 123.714 40.32 122.327 40.32ZM128.343 40V36.16H128.183V23.68H130.743V40H128.343Z" fill="currentColor"/>
<path d="M112.597 40.288C110.783 40.288 109.461 39.8827 108.629 39.072C107.818 38.24 107.413 37.0453 107.413 35.488V19.872L109.973 18.912V35.456C109.973 36.3733 110.207 37.0453 110.677 37.472C111.146 37.8987 111.914 38.112 112.981 38.112C113.407 38.112 113.77 38.0907 114.069 38.048C114.389 37.984 114.645 37.9093 114.837 37.824V40C114.623 40.0853 114.314 40.1493 113.909 40.192C113.525 40.256 113.087 40.288 112.597 40.288ZM104.053 25.856V23.68H114.837V25.856H104.053Z" fill="currentColor"/>
<path d="M95.56 40.288C92.872 40.288 90.728 39.6267 89.128 38.304C87.5493 36.9813 86.6213 35.0933 86.344 32.64H88.904C89.1387 34.4107 89.8107 35.744 90.92 36.64C92.0293 37.536 93.5653 37.984 95.528 37.984C97.192 37.984 98.44 37.6747 99.272 37.056C100.125 36.416 100.552 35.488 100.552 34.272C100.552 33.2267 100.264 32.3947 99.688 31.776C99.112 31.1573 98.216 30.6453 97 30.24L93.128 28.896C91.1653 28.2133 89.7147 27.392 88.776 26.432C87.8373 25.4507 87.368 24.2133 87.368 22.72C87.368 21.4827 87.6773 20.416 88.296 19.52C88.9147 18.6027 89.7893 17.888 90.92 17.376C92.0507 16.864 93.3627 16.608 94.856 16.608C97.16 16.608 99.0053 17.216 100.392 18.432C101.779 19.6267 102.579 21.3333 102.792 23.552H100.232C99.9547 21.952 99.3787 20.7787 98.504 20.032C97.6507 19.2853 96.4133 18.912 94.792 18.912C93.256 18.912 92.0613 19.2213 91.208 19.84C90.3547 20.4587 89.928 21.3333 89.928 22.464C89.928 23.424 90.2267 24.192 90.824 24.768C91.4213 25.344 92.3493 25.8453 93.608 26.272L97.736 27.712C99.528 28.3307 100.872 29.1733 101.768 30.24C102.664 31.2853 103.112 32.6187 103.112 34.24C103.112 36.16 102.451 37.6533 101.128 38.72C99.8267 39.7653 97.9707 40.288 95.56 40.288Z" fill="currentColor"/>
</g>
<defs>
<clipPath id="clip0_86_2656">
<rect width="176" height="41" fill="white"/>
</clipPath>
</defs>
</svg>